<svg width="29" height="29" viewBox="0 0 29 29" fill="none" xmlns="http://www.w3.org/2000/svg">
<path d="M17.5212 20.5417C17.5212 22.5354 15.8899 24.1667 13.8962 24.1667C11.9024 24.1667 10.2712 22.5354 10.2712 20.5417H12.6878C12.6878 21.2063 13.2316 21.75 13.8962 21.75C14.5607 21.75 15.1045 21.2063 15.1045 20.5417C15.1045 19.8771 14.5607 19.3333 13.8962 19.3333H2.41699V16.9167H13.8962C15.8899 16.9167 17.5212 18.5479 17.5212 20.5417ZM22.9587 7.85417C22.9587 5.52208 21.0616 3.625 18.7295 3.625C16.3974 3.625 14.5003 5.52208 14.5003 7.85417H16.917C16.917 6.85125 17.7266 6.04167 18.7295 6.04167C19.7324 6.04167 20.542 6.85125 20.542 7.85417C20.542 8.85708 19.7324 9.66667 18.7295 9.66667H2.41699V12.0833H18.7295C21.0616 12.0833 22.9587 10.1863 22.9587 7.85417ZM22.3545 13.2917H2.41699V15.7083H22.3545C23.3574 15.7083 24.167 16.5179 24.167 17.5208C24.167 18.5238 23.3574 19.3333 22.3545 19.3333V21.75C24.6866 21.75 26.5837 19.8529 26.5837 17.5208C26.5837 15.1888 24.6866 13.2917 22.3545 13.2917Z" fill="#CBCBCB"/>
</svg>
