<svg width="26" height="26" viewBox="0 0 26 26" fill="none" xmlns="http://www.w3.org/2000/svg">
<path d="M15.7082 18.4167C15.7082 20.2042 14.2457 21.6667 12.4582 21.6667C10.6707 21.6667 9.20817 20.2042 9.20817 18.4167H11.3748C11.3748 19.0125 11.8623 19.5 12.4582 19.5C13.054 19.5 13.5415 19.0125 13.5415 18.4167C13.5415 17.8208 13.054 17.3333 12.4582 17.3333H2.1665V15.1667H12.4582C14.2457 15.1667 15.7082 16.6292 15.7082 18.4167ZM20.5832 7.04167C20.5832 4.95083 18.8823 3.25 16.7915 3.25C14.7007 3.25 12.9998 4.95083 12.9998 7.04167H15.1665C15.1665 6.1425 15.8923 5.41667 16.7915 5.41667C17.6907 5.41667 18.4165 6.1425 18.4165 7.04167C18.4165 7.94083 17.6907 8.66667 16.7915 8.66667H2.1665V10.8333H16.7915C18.8823 10.8333 20.5832 9.1325 20.5832 7.04167ZM20.0415 11.9167H2.1665V14.0833H20.0415C20.9407 14.0833 21.6665 14.8092 21.6665 15.7083C21.6665 16.6075 20.9407 17.3333 20.0415 17.3333V19.5C22.1323 19.5 23.8332 17.7992 23.8332 15.7083C23.8332 13.6175 22.1323 11.9167 20.0415 11.9167Z" fill="#A5A5A5"/>
</svg>
