<svg width="39" height="34" viewBox="0 0 39 34" fill="none" xmlns="http://www.w3.org/2000/svg">
<path d="M22.3663 25.5C22.3663 26.8401 20.9809 28.0334 19.1247 28.0334C17.2684 28.0334 15.883 26.8401 15.883 25.5C15.883 24.1599 17.2684 22.9667 19.1247 22.9667C20.9809 22.9667 22.3663 24.1599 22.3663 25.5Z" stroke="#6C6C6C" stroke-width="0.6"/>
<path d="M18.925 4.25V4.45H19.325V4.25H18.925ZM19.325 4.25V0H18.925V4.25H19.325Z" fill="#6C6C6C"/>
<path d="M18.4826 5.45091C18.8025 5.02002 19.4475 5.02002 19.7674 5.45091L34.3424 25.0857C34.7342 25.6135 34.3574 26.3625 33.7 26.3625H4.54997C3.89255 26.3625 3.51576 25.6135 3.90761 25.0857L18.4826 5.45091Z" fill="white" stroke="#6C6C6C" stroke-width="0.4"/>
<path d="M8.50044 21.1394L15.5931 11.4393" stroke="#6C6C6C" stroke-width="0.2" stroke-linecap="round"/>
<path d="M19.084 5.22165C19.3421 5.22186 19.5987 5.04219 19.5988 4.76691C19.5989 4.49163 19.3425 4.31152 19.0844 4.31131C18.8263 4.31109 18.5697 4.49076 18.5696 4.76604C18.5694 5.04132 18.8259 5.22143 19.084 5.22165Z" stroke="#6C6C6C" stroke-width="0.3"/>
<path d="M6.32867 24.0506L7.83907 21.9912" stroke="#6C6C6C" stroke-width="0.2" stroke-linecap="round"/>
</svg>
