<svg width="28" height="28" viewBox="0 0 28 28" fill="none" xmlns="http://www.w3.org/2000/svg">
<path d="M8 9C8 7.136 8 6.204 7.697 5.47C7.49586 4.98427 7.20094 4.54295 6.82911 4.17129C6.45727 3.79963 6.01582 3.50492 5.53 3.304C4.796 3 3.864 3 2 3C2 4.864 2 5.796 2.303 6.53C2.50414 7.01573 2.79906 7.45705 3.17089 7.82871C3.54273 8.20037 3.98418 8.49508 4.47 8.696C5.204 9 6.136 9 8 9ZM8 9C8 7.757 8 7.136 8.203 6.646C8.474 5.993 8.993 5.473 9.646 5.203C10.136 5 10.758 5 12 5C12 6.243 12 6.864 11.797 7.354C11.526 8.00709 11.0071 8.52604 10.354 8.797C9.864 9 9.243 9 8 9ZM8 9V14M12 14H2M12 17H2M12 20H2M16 18.503C16 17.248 17.053 16.008 17.792 15.292C17.9801 15.1049 18.2347 14.9999 18.5 14.9999C18.7653 14.9999 19.0199 15.1049 19.208 15.292C19.947 16.008 21 17.248 21 18.503C21 19.734 20.053 21 18.5 21C16.947 21 16 19.734 16 18.503Z" stroke="#7CA850" stroke-width="1.5" stroke-linecap="round" stroke-linejoin="round"/>
</svg>
