<svg width="30" height="30" viewBox="0 0 30 30" fill="none" xmlns="http://www.w3.org/2000/svg">
<path d="M14.4987 3.28777C14.4371 3.21582 14.3607 3.15806 14.2746 3.11846C14.1886 3.07886 14.095 3.05835 14.0003 3.05835C13.9056 3.05835 13.812 3.07886 13.7259 3.11846C13.6399 3.15806 13.5634 3.21582 13.5018 3.28777C11.7704 5.31285 6.125 12.3139 6.125 17.5C6.125 22.3327 9.16781 25.375 14 25.375C18.8322 25.375 21.875 22.3327 21.875 17.5C21.875 12.3139 16.2296 5.31285 14.4987 3.28777ZM14.875 22.5312C14.7699 22.5314 14.6663 22.5064 14.5728 22.4583C14.4794 22.4101 14.3989 22.3402 14.3382 22.2544C14.2774 22.1687 14.2381 22.0696 14.2236 21.9655C14.2091 21.8614 14.2198 21.7553 14.2548 21.6562C14.2996 21.5269 14.384 21.415 14.496 21.3365C14.6081 21.2579 14.742 21.2167 14.8788 21.2187C15.7475 21.2168 16.58 20.8709 17.1942 20.2567C17.8085 19.6425 18.1544 18.8099 18.1562 17.9413C18.1542 17.8045 18.1955 17.6705 18.274 17.5585C18.3526 17.4464 18.4644 17.3621 18.5938 17.3173C18.6928 17.2823 18.7989 17.2715 18.903 17.286C19.0071 17.3005 19.1062 17.3398 19.192 17.4006C19.2777 17.4614 19.3476 17.5419 19.3958 17.6353C19.444 17.7287 19.469 17.8323 19.4688 17.9375C19.4674 19.1554 18.983 20.3231 18.1218 21.1843C17.2606 22.0455 16.0929 22.5299 14.875 22.5312Z" fill="#4F9EA1"/>
</svg>
